# xmcd
#
# Track frame offsets: 
#        150
#        13030
#        34135
#        44760
#        59242
#        75517
#        86994
#        97691
#        114120
#        130653
#        147877
#        161860
#        184550
#        202844
#        214321
#        228914
#        245626
#        259051
#        270373
#
# Disc length: 3828 seconds
#
# Revision: 4
# Processed by: cddbd v1.5.1PL0 Copyright (c) Steve Scherf et al.
# Submitted via: ExactAudioCopy v0.95a5
#
DISCID=050ef213
DTITLE=Various Artist - Drivin' Blues
DYEAR=2000
DGENRE=Blues
TTITLE0=Homesick James - Hawaiian Boogie
TTITLE1=Peg Leg Sam - Who's That Left Here 'While Ago
TTITLE2=Jimmy Reed - I Ain't Got You
TTITLE3=Big Maybelle - Winnie Widow Brown
TTITLE4=Willie Willis - Drivin' Woman Blues
TTITLE5=Memphis Slim - Let the Good Times Roll Creole
TTITLE6=Elmore Jame - Elmore's Contribution To Jazz
TTITLE7=John Lee Hooker - C. C. Rider
TTITLE8=Tarheel Slim - My Baby's Gone
TTITLE9=Robert Lockwood, Jr. - Red Top
TTITLE10=Mose Allison - 7th Son
TTITLE11=Les McCann - Blues 5
TTITLE12=Big Chief Ellis - Louise
TTITLE13=Eddie Kirkland - Georgia Woman
TTITLE14=Ike and Tina Turner - Sweet Rhode Island Red
TTITLE15=Honeyboy Edwards - Ride With Me Tonight
TTITLE16=Dan DelSanto - White Feathers In the Coop
TTITLE17=Roy Dunn - Further On Down the Line
TTITLE18=Peg Leg Sam - Fast Freight Train
EXTD=LABEL =32 Blues\nID =32201\nUPC =604123-220125\nCOPYRIGHT =20
EXTD=00
EXTT0=
EXTT1=
EXTT2=
EXTT3=
EXTT4=
EXTT5=
EXTT6=
EXTT7=
EXTT8=
EXTT9=
EXTT10=
EXTT11=
EXTT12=
EXTT13=
EXTT14=
EXTT15=
EXTT16=
EXTT17=
EXTT18=
PLAYORDER=
